<svg width="15" height="15" viewBox="0 0 15 15" fill="none" xmlns="http://www.w3.org/2000/svg">
<g clip-path="url(#clip0)">
<path d="M14.4388 3.68449L7.49603 10.6279L0.553273 3.68449C0.423751 3.55937 0.217316 3.56297 0.0921959 3.6925C-0.0298368 3.81887 -0.0298368 4.01919 0.0921959 4.14553L7.26581 11.3192C7.39313 11.4464 7.59953 11.4464 7.72688 11.3192L14.9005 4.14553C15.03 4.02041 15.0336 3.81401 14.9085 3.68446C14.7834 3.55493 14.577 3.55136 14.4474 3.67645C14.4447 3.67908 14.442 3.68174 14.4394 3.68446L14.4388 3.68449Z" fill="#FFC107"/>
<path d="M7.49565 11.415C7.40911 11.4152 7.32605 11.381 7.26479 11.3198L0.0911699 4.14621C-0.0339505 4.01668 -0.0303433 3.81025 0.0991791 3.68513C0.225553 3.5631 0.425874 3.5631 0.552217 3.68513L7.49562 10.6279L14.4384 3.68449C14.5635 3.55496 14.7699 3.55139 14.8995 3.67648C15.029 3.8016 15.0326 4.008 14.9075 4.13755C14.9048 4.14028 14.9022 4.14293 14.8995 4.14556L7.72587 11.3192C7.66485 11.3804 7.58204 11.4148 7.49565 11.415Z" fill="#65AF17"/>
</g>
<defs>
<clipPath id="clip0">
<rect width="15" height="15" fill="white"/>
</clipPath>
</defs>
</svg>
