<svg width="50" height="50" viewBox="0 0 50 50" fill="none" xmlns="http://www.w3.org/2000/svg">
<path d="M33.9375 8.75H30.6875V6.3125C30.6875 4.80408 30.0883 3.35744 29.0217 2.29083C27.9551 1.22422 26.5084 0.625 25 0.625C23.4916 0.625 22.0449 1.22422 20.9783 2.29083C19.9117 3.35744 19.3125 4.80408 19.3125 6.3125V8.75H16.0625C15.847 8.75 15.6403 8.8356 15.488 8.98798C15.3356 9.14035 15.25 9.34701 15.25 9.5625V27.4375C15.2519 28.0834 15.5094 28.7022 15.9661 29.1589C16.4228 29.6156 17.0416 29.8731 17.6875 29.875H28.25V28.25H17.6875C17.472 28.25 17.2653 28.1644 17.113 28.012C16.9606 27.8597 16.875 27.653 16.875 27.4375V26.625H28.25V25H16.875V10.375H19.3125V12.8125H20.9375V10.375H29.0625V12.8125H30.6875V10.375H33.125V12.8125H34.75V9.5625C34.75 9.34701 34.6644 9.14035 34.512 8.98798C34.3597 8.8356 34.153 8.75 33.9375 8.75ZM29.0625 8.75H20.9375V6.3125C20.9375 5.23506 21.3655 4.20175 22.1274 3.43988C22.8892 2.67801 23.9226 2.25 25 2.25C26.0774 2.25 27.1108 2.67801 27.8726 3.43988C28.6345 4.20175 29.0625 5.23506 29.0625 6.3125V8.75Z" fill="#6517FA"/>
<path d="M45.3125 14.4375H30.6875C30.472 14.4375 30.2653 14.5231 30.113 14.6755C29.9606 14.8278 29.875 15.0345 29.875 15.25V27.4375C29.8769 28.0834 30.1344 28.7022 30.5911 29.1589C31.0478 29.6156 31.6666 29.8731 32.3125 29.875H43.6875C44.3334 29.8731 44.9522 29.6156 45.4089 29.1589C45.8656 28.7022 46.1231 28.0834 46.125 27.4375V15.25C46.125 15.0345 46.0394 14.8278 45.887 14.6755C45.7347 14.5231 45.528 14.4375 45.3125 14.4375ZM44.5 27.4375C44.5 27.653 44.4144 27.8597 44.262 28.012C44.1097 28.1644 43.903 28.25 43.6875 28.25H32.3125C32.097 28.25 31.8903 28.1644 31.738 28.012C31.5856 27.8597 31.5 27.653 31.5 27.4375V26.625H44.5V27.4375ZM44.5 25H31.5V16.0625H44.5V25Z" fill="#6517FA"/>
<path d="M38 23.375C39.077 23.3737 40.1096 22.9453 40.8712 22.1837C41.6328 21.4221 42.0612 20.3895 42.0625 19.3125V17.6875H40.4375V19.3125C40.4375 19.959 40.1807 20.579 39.7236 21.0361C39.2665 21.4932 38.6465 21.75 38 21.75C37.3535 21.75 36.7335 21.4932 36.2764 21.0361C35.8193 20.579 35.5625 19.959 35.5625 19.3125V17.6875H33.9375V19.3125C33.9388 20.3895 34.3672 21.4221 35.1288 22.1837C35.8904 22.9453 36.923 23.3737 38 23.375Z" fill="#6517FA"/>
<path d="M49.6448 35.1969C49.2824 34.4404 48.6486 33.848 47.8693 33.5376C47.0901 33.2271 46.2225 33.2214 45.4393 33.5215L38.1837 36.1621C38.0307 35.5558 37.706 35.0064 37.2486 34.58C36.7911 34.1535 36.2204 33.8681 35.6048 33.758L25.8036 32.0298C23.6967 31.6591 21.5294 31.8487 19.5189 32.5798L18.2563 33.0438C17.0698 33.478 15.9488 34.0738 14.925 34.8142L14.7455 34.321C14.7092 34.2207 14.6534 34.1284 14.5815 34.0496C14.5095 33.9708 14.4227 33.9069 14.3261 33.8616C14.2294 33.8164 14.1248 33.7906 14.0182 33.7858C13.9115 33.7809 13.805 33.7972 13.7047 33.8335L4.54209 37.1648C4.44172 37.2011 4.34949 37.2568 4.27067 37.3288C4.19185 37.4007 4.12798 37.4875 4.08271 37.5842C4.03744 37.6808 4.01165 37.7855 4.00683 37.8921C4.002 37.9987 4.01823 38.1052 4.05459 38.2056L0.23584 39.595L0.79159 41.1216L4.61034 39.7323L7.92453 48.8388L9.45121 48.283L5.86321 38.4144L13.5007 35.6357L17.6697 47.0919L15.7197 47.8028L16.2754 49.3287L18.9875 48.3375C19.088 48.3011 19.1803 48.2454 19.2592 48.1734C19.3381 48.1013 19.402 48.0145 19.4473 47.9177C19.4926 47.821 19.5183 47.7163 19.5231 47.6095C19.5278 47.5028 19.5115 47.3962 19.475 47.2958L19.1972 46.5321L21.0659 45.8512C22.2408 45.4218 23.493 45.2452 24.7408 45.3328L28.5953 45.6001C30.0699 45.7062 31.5502 45.4976 32.9381 44.9883L47.7906 39.5828C48.2108 39.43 48.5948 39.1922 48.9189 38.8843C49.2429 38.5763 49.4999 38.2049 49.6738 37.7931C49.8478 37.3813 49.9349 36.938 49.9298 36.4911C49.9246 36.0441 49.8273 35.603 49.644 35.1953L49.6448 35.1969ZM48.1514 37.2143C48.062 37.4081 47.9351 37.5823 47.7779 37.7266C47.6207 37.871 47.4364 37.9827 47.2357 38.0553L32.3832 43.4616C31.2086 43.8919 29.9561 44.0683 28.7083 43.9792L24.8538 43.7119C23.3795 43.6089 21.9001 43.8173 20.5118 44.3237L18.6382 45.0054L15.506 36.3994C16.5056 35.6192 17.6215 35.0007 18.8128 34.5664L20.0738 34.1073C21.8165 33.4734 23.6953 33.309 25.5216 33.6304L35.3188 35.3586C35.5311 35.3932 35.7345 35.4696 35.9171 35.5835C36.0997 35.6973 36.2578 35.8462 36.3824 36.0217C36.5069 36.1971 36.5954 36.3955 36.6427 36.6054C36.69 36.8153 36.6951 37.0325 36.6578 37.2444C36.6204 37.4563 36.5414 37.6587 36.4252 37.8398C36.3091 38.0209 36.1581 38.1771 35.9811 38.2994C35.8041 38.4217 35.6045 38.5076 35.394 38.5522C35.1835 38.5967 34.9663 38.5991 34.7549 38.559L25.9531 37.0071L25.6703 38.6078L34.4721 40.1596C35.2521 40.2977 36.0556 40.1448 36.7304 39.73C37.4051 39.3152 37.9043 38.6673 38.1333 37.909L45.9918 35.0482C46.3896 34.8923 46.831 34.889 47.231 35.039C47.6311 35.189 47.9615 35.4817 48.1587 35.8607C48.2543 36.0737 48.3032 36.3048 48.3019 36.5383C48.3006 36.7718 48.2493 37.0023 48.1514 37.2143Z" fill="#6517FA"/>
</svg>
