<svg width="52" height="52" viewBox="0 0 52 52" fill="none" xmlns="http://www.w3.org/2000/svg">
<g clip-path="url(#clip0)">
<path d="M45.381 21.6973L25.9997 15.2728L6.61847 21.6973L0.000732422 32.2091L6.09298 34.2286V45.4014L25.9996 52L45.9063 45.4014V34.2286L51.9985 32.2091L45.381 21.6973ZM39.541 22.9715L25.9997 27.4601L12.4584 22.9715L25.9997 18.4828L39.541 22.9715ZM4.65158 30.5408L8.27001 24.793L23.6743 29.8993L20.056 35.6469L4.65158 30.5408ZM9.14002 35.2386L21.3628 39.2902L24.4763 34.3448V48.2851L9.14002 43.2014V35.2386ZM27.5232 48.285V34.3447L30.6367 39.2901L42.8594 35.2385V43.2013L27.5232 48.285ZM31.9435 35.647L28.3251 29.8994L43.7294 24.7931L47.3479 30.5409L31.9435 35.647Z" fill="#6517FA"/>
<path d="M45.381 21.6973L25.9997 15.2728L6.61847 21.6973L0.000732422 32.2091L6.09298 34.2286V45.4014L25.9996 52L45.9063 45.4014V34.2286L51.9985 32.2091L45.381 21.6973ZM39.541 22.9715L25.9997 27.4601L12.4584 22.9715L25.9997 18.4828L39.541 22.9715ZM4.65158 30.5408L8.27001 24.793L23.6743 29.8993L20.056 35.6469L4.65158 30.5408ZM9.14002 35.2386L21.3628 39.2902L24.4763 34.3448V48.2851L9.14002 43.2014V35.2386ZM27.5232 48.285V34.3447L30.6367 39.2901L42.8594 35.2385V43.2013L27.5232 48.285ZM31.9435 35.647L28.3251 29.8994L43.7294 24.7931L47.3479 30.5409L31.9435 35.647Z" stroke="black"/>
<path d="M24.4766 0H27.5235V10.1741H24.4766V0Z" fill="#6517FA"/>
<path d="M24.4766 0H27.5235V10.1741H24.4766V0Z" stroke="black"/>
<path d="M10.1479 4.6557L12.7865 3.13223L17.8736 11.943L15.2349 13.4665L10.1479 4.6557Z" fill="#6517FA"/>
<path d="M10.1479 4.6557L12.7865 3.13223L17.8736 11.943L15.2349 13.4665L10.1479 4.6557Z" stroke="black"/>
<path d="M34.1259 11.9441L39.2129 3.13327L41.8516 4.65674L36.7645 13.4675L34.1259 11.9441Z" fill="#6517FA"/>
<path d="M34.1259 11.9441L39.2129 3.13327L41.8516 4.65674L36.7645 13.4675L34.1259 11.9441Z" stroke="black"/>
</g>
<defs>
<clipPath id="clip0">
<rect width="52" height="52" fill="white"/>
</clipPath>
</defs>
</svg>
