<svg width="40" height="40" viewBox="0 0 40 40" fill="#65af17" xmlns="http://www.w3.org/2000/svg">
<path d="M26.9581 26.0869C26.4781 26.0869 26.0885 26.4765 26.0885 26.9565V35.6522C26.0885 37.0905 24.9181 38.2609 23.4798 38.2609H4.34938C2.9111 38.2609 1.74069 37.0905 1.74069 35.6522V4.34788C1.74069 2.90959 2.9111 1.73918 4.34938 1.73918H23.4798C24.9181 1.73918 26.0885 2.90959 26.0885 4.34788V13.0435C26.0885 13.5235 26.4781 13.9131 26.9581 13.9131C27.4381 13.9131 27.8277 13.5235 27.8277 13.0435V4.3478C27.8276 1.9513 25.8763 0 23.4798 0H4.34938C1.95289 0 0.00158691 1.9513 0.00158691 4.3478V35.6521C0.00158691 38.0486 1.95289 39.9999 4.34938 39.9999H23.4798C25.8763 39.9999 27.8276 38.0486 27.8276 35.6521V26.9565C27.8276 26.4765 27.4381 26.0869 26.9581 26.0869Z" fill="#6517AF"/>
<path d="M39.9328 19.6678C39.8928 19.5722 39.8337 19.4869 39.7624 19.4122C39.7555 19.4053 39.7537 19.3948 39.745 19.3878L32.7885 12.4313C32.4494 12.0922 31.8981 12.0922 31.5589 12.4313C31.2198 12.7705 31.2198 13.3218 31.5589 13.6609L37.0303 19.1322H16.5224C16.0424 19.1322 15.6528 19.5218 15.6528 20.0018C15.6528 20.4818 16.0424 20.8714 16.5224 20.8714H37.032L31.5589 26.3445C31.2198 26.6836 31.2198 27.2349 31.5589 27.5741C31.7294 27.741 31.9519 27.8262 32.1746 27.8262C32.3972 27.8262 32.6198 27.741 32.7902 27.5723L39.7467 20.6158C39.785 20.5775 39.8024 20.5288 39.8319 20.4871C39.8667 20.4366 39.9085 20.3931 39.9328 20.3357C40.0215 20.1218 40.0215 19.8818 39.9328 19.6678Z" fill="#6517AF"/>
</svg>
