<svg width="40" height="40" viewBox="0 0 40 40" fill="none" xmlns="http://www.w3.org/2000/svg">
<g clip-path="url(#clip0)">
<path d="M37.4359 7.17946H2.56414C1.14766 7.17946 0 6.0318 0 4.61539C0 3.19899 1.14766 2.05125 2.56414 2.05125H37.4359C38.8523 2.05125 40 3.19891 40 4.61539C40 6.03188 38.8523 7.17946 37.4359 7.17946Z" fill="#6517AF"/>
<path d="M23.077 22.5641H2.56414C1.14766 22.5641 0 21.4164 0 20C0 18.5836 1.14766 17.4359 2.56414 17.4359H23.077C24.4934 17.4359 25.6411 18.5835 25.6411 20C25.6411 21.4165 24.4934 22.5641 23.077 22.5641Z" fill="#6517AF"/>
<path d="M37.4359 22.5641H33.3334C31.917 22.5641 30.7692 21.4165 30.7692 20C30.7692 18.5835 31.9169 17.4359 33.3334 17.4359H37.4359C38.8524 17.4359 40 18.5835 40 20C40 21.4165 38.8524 22.5641 37.4359 22.5641Z" fill="#9E4FE9"/>
<path d="M37.4359 37.9487H2.56414C1.14766 37.9487 0 36.801 0 35.3846C0 33.9682 1.14766 32.8205 2.56414 32.8205H37.4359C38.8523 32.8205 40 33.9681 40 35.3846C40 36.801 38.8523 37.9487 37.4359 37.9487Z" fill="#6517AF"/>
</g>
<defs>
<clipPath id="clip0">
<rect width="40" height="40" fill="white"/>
</clipPath>
</defs>
</svg>
