<svg width="52" height="52" viewBox="0 0 52 52" fill="none" xmlns="http://www.w3.org/2000/svg">
<path d="M46.1213 9.3371H11.6914C8.44958 9.3371 5.81277 11.7489 5.81277 14.7138V15.1851C2.60162 15.2185 0 17.6145 0 20.5585V37.286C0 40.2508 2.6373 42.6627 5.87868 42.6627H40.3086C43.5499 42.6627 46.1872 40.2508 46.1872 37.286V36.8147C49.3976 36.782 52 34.386 52 31.4412V14.714C52.0007 11.7492 49.3627 9.3371 46.1213 9.3371ZM42.4176 37.286C42.4176 38.1569 41.4523 38.892 40.3093 38.892H5.87942C4.73644 38.892 3.77111 38.1569 3.77111 37.286V20.5588C3.77111 19.6883 4.73694 18.9527 5.87942 18.9527H40.3093C41.4523 18.9527 42.4176 19.6886 42.4176 20.5588V37.286ZM46.188 33.0421V20.5585C46.188 17.5937 43.5507 15.1818 40.3093 15.1818H9.58314V14.7138C9.58314 13.8434 10.549 13.1077 11.6914 13.1077H46.1213C47.2643 13.1077 48.2296 13.8436 48.2296 14.7138V31.4412H48.2304C48.2301 32.2946 47.301 33.0139 46.188 33.0421Z" fill="#6517FA"/>
<path d="M23.1616 27.5099C21.5749 27.3208 20.7694 27.0946 20.7694 26.3805C20.7694 25.2745 22.3705 25.155 23.0593 25.155C24.0729 25.155 25.1939 25.6451 25.5591 26.2477L25.7043 26.4883L28.02 25.4169L27.8785 25.1285C27.0636 23.464 25.6188 22.9612 24.5033 22.7568V21.2838H21.7947V22.7491C19.4093 23.1206 17.9948 24.464 17.9948 26.38C17.9948 29.5327 20.952 29.8632 22.9069 30.0825C24.6839 30.2924 25.5122 30.719 25.5122 31.4247C25.5122 32.7897 23.5843 32.8957 22.9929 32.8957C21.667 32.8957 20.39 32.2391 20.0231 31.3675L19.9004 31.0778L17.388 32.1423L17.5119 32.4319C18.2188 34.087 19.7339 35.1309 21.7939 35.3911V36.979H24.5023V35.3118C26.4793 35.068 28.3839 33.8036 28.3839 31.424C28.3847 28.1541 25.2422 27.7668 23.1616 27.5099Z" fill="#6517FA"/>
</svg>
