<svg width="52" height="52" viewBox="0 0 52 52" fill="none" xmlns="http://www.w3.org/2000/svg">
<path d="M15.2736 41.1067C10.372 37.6607 7.44576 32.0311 7.44576 26.048C7.44576 16.2635 15.1994 8.18095 24.8828 7.68028V9.31123C24.8828 10.3538 26.0555 10.9783 26.9212 10.3864L32.7737 6.38298C33.5299 5.86643 33.5299 4.74925 32.7741 4.23231L26.9212 0.228516C26.7026 0.0789491 26.4487 0 26.1872 0C25.468 0 24.8828 0.584779 24.8828 1.30365V2.96317C20.8374 3.1294 16.9169 4.34895 13.5006 6.51112C13.1448 6.73646 13.0388 7.20778 13.2642 7.56364C13.4891 7.9199 13.9608 8.02543 14.3163 7.80009C17.4886 5.79264 21.1262 4.65482 24.882 4.48978V6.15129C14.3151 6.64878 5.92033 15.3625 5.92033 26.048C5.92033 32.5274 9.08901 38.6232 14.3961 42.3544C15.3093 42.9963 14.3116 44.3234 13.4534 43.7207C1.90425 35.6096 1.06992 18.703 11.9423 9.53975C12.2644 9.26839 12.3053 8.78716 12.0339 8.46501C11.7626 8.14287 11.2813 8.10161 10.9592 8.37337C-0.687983 18.1896 0.22132 36.292 12.5767 44.9689C13.3979 45.5461 14.5294 45.5461 15.3867 44.8669C16.6225 43.8945 16.5594 42.0108 15.2736 41.1067ZM26.4082 1.72577L31.6443 5.30744L26.4082 8.88911V1.72577Z" fill="#6517FA"/>
<path d="M39.5392 7.03084C37.9681 5.92714 35.7885 7.1213 35.8397 9.02837C35.8599 9.77938 36.2257 10.459 36.8426 10.893C41.7442 14.339 44.6704 19.9682 44.6704 25.9517C44.6704 35.7362 36.9168 43.8184 27.2334 44.319V42.6885C27.2334 41.6459 26.0603 41.0214 25.195 41.6133L19.3425 45.6167C18.5859 46.1333 18.5863 47.2501 19.3421 47.7674C25.7358 52.1409 25.3811 51.9993 25.929 51.9993C26.6482 51.9993 27.2334 51.4145 27.2334 50.6957V49.0353C39.5515 48.5355 49.3804 38.4066 49.3804 25.9517C49.3804 18.4316 45.7015 11.3584 39.5392 7.03084ZM25.708 50.2735L20.472 46.6923L25.708 43.1106V50.2735ZM27.2346 47.5099V45.848C37.8007 45.3509 46.1959 36.6372 46.1959 25.9517C46.1959 19.4723 43.0272 13.3765 37.7202 9.64529C37.5012 9.49136 37.3714 9.25133 37.3647 8.98711C37.3464 8.32299 38.1244 7.90047 38.6628 8.27895C44.4189 12.3216 47.8554 18.928 47.8554 25.9517C47.855 37.4913 38.6739 47.0053 27.2346 47.5099Z" fill="#6517FA"/>
<path d="M22.4251 27.1732L20.389 24.4587C18.6228 22.1034 14.8872 23.0793 14.473 25.9742C14.3481 26.8482 14.5714 27.7183 15.101 28.4248L18.8283 33.3947C20.1712 35.1851 22.748 35.493 24.475 34.0608L36.4808 24.1049C37.8872 22.9389 38.0816 20.8572 36.9156 19.4508C35.7524 18.0484 33.6644 17.8532 32.2616 19.0164L22.4251 27.1732ZM35.7413 20.4244C36.3689 21.1814 36.2646 22.3025 35.5072 22.9305L23.5014 32.8865C22.4477 33.7601 20.8707 33.5752 20.0487 32.4794L16.3214 27.5096C16.0361 27.1291 15.9159 26.6606 15.9834 26.1901C16.2075 24.6194 18.2217 24.1116 19.1687 25.374L21.6852 28.7295C21.945 29.0759 22.4449 29.139 22.7825 28.8589L33.2351 20.1907C33.9905 19.5643 35.1148 19.669 35.7413 20.4244Z" fill="#6517FA"/>
</svg>
